<mxfile host="app.diagrams.net" modified="2022-06-15T15:42:11.681Z" agent="5.0 (Windows NT 10.0; Win64; x64) AppleWebKit/537.36 (KHTML, like Gecko) Chrome/102.0.0.0 Safari/537.36" etag="mqR3WZ_kVvihgTAWOeda" version="17.5.0" type="github">
  <diagram id="R5a5NPqz2yX41LrVqOXw" name="Page-1">
    <mxGraphModel dx="2249" dy="762" grid="1" gridSize="10" guides="1" tooltips="1" connect="1" arrows="1" fold="1" page="1" pageScale="1" pageWidth="827" pageHeight="1169" math="0" shadow="0">
      <root>
        <mxCell id="0" />
        <mxCell id="1" parent="0" />
        <mxCell id="vYbNUfEm3Xzhya9i326D-77" style="edgeStyle=orthogonalEdgeStyle;rounded=0;orthogonalLoop=1;jettySize=auto;html=1;exitX=0.5;exitY=1;exitDx=0;exitDy=0;dashed=1;fontFamily=Lucida Console;fontSize=11;fontColor=#FFFFFF;entryX=0.5;entryY=1;entryDx=0;entryDy=0;" edge="1" parent="1" source="vYbNUfEm3Xzhya9i326D-55" target="vYbNUfEm3Xzhya9i326D-27">
          <mxGeometry relative="1" as="geometry">
            <mxPoint x="620" y="950" as="targetPoint" />
          </mxGeometry>
        </mxCell>
        <mxCell id="vYbNUfEm3Xzhya9i326D-1" value="&lt;hr&gt;" style="rounded=0;whiteSpace=wrap;html=1;fillColor=#fff2cc;strokeColor=#d6b656;" vertex="1" parent="1">
          <mxGeometry x="80" y="280" width="680" height="440" as="geometry" />
        </mxCell>
        <mxCell id="vYbNUfEm3Xzhya9i326D-66" style="edgeStyle=orthogonalEdgeStyle;rounded=0;orthogonalLoop=1;jettySize=auto;html=1;dashed=1;fontFamily=Lucida Console;fontSize=11;fontColor=#FFFFFF;" edge="1" parent="1" source="vYbNUfEm3Xzhya9i326D-55" target="vYbNUfEm3Xzhya9i326D-14">
          <mxGeometry relative="1" as="geometry" />
        </mxCell>
        <mxCell id="vYbNUfEm3Xzhya9i326D-89" style="edgeStyle=orthogonalEdgeStyle;rounded=0;orthogonalLoop=1;jettySize=auto;html=1;entryX=0.005;entryY=0.63;entryDx=0;entryDy=0;entryPerimeter=0;dashed=1;fontFamily=Lucida Console;fontSize=11;fontColor=#FFFFFF;" edge="1" parent="1" source="vYbNUfEm3Xzhya9i326D-68" target="vYbNUfEm3Xzhya9i326D-78">
          <mxGeometry relative="1" as="geometry" />
        </mxCell>
        <mxCell id="vYbNUfEm3Xzhya9i326D-88" style="edgeStyle=orthogonalEdgeStyle;rounded=0;orthogonalLoop=1;jettySize=auto;html=1;entryX=0.005;entryY=0.63;entryDx=0;entryDy=0;entryPerimeter=0;dashed=1;fontFamily=Lucida Console;fontSize=11;fontColor=#FFFFFF;" edge="1" parent="1" source="vYbNUfEm3Xzhya9i326D-55" target="vYbNUfEm3Xzhya9i326D-78">
          <mxGeometry relative="1" as="geometry" />
        </mxCell>
        <mxCell id="vYbNUfEm3Xzhya9i326D-87" style="edgeStyle=orthogonalEdgeStyle;rounded=0;orthogonalLoop=1;jettySize=auto;html=1;exitX=0;exitY=0.5;exitDx=0;exitDy=0;entryX=0.005;entryY=0.63;entryDx=0;entryDy=0;entryPerimeter=0;dashed=1;fontFamily=Lucida Console;fontSize=11;fontColor=#FFFFFF;" edge="1" parent="1" source="vYbNUfEm3Xzhya9i326D-55" target="vYbNUfEm3Xzhya9i326D-78">
          <mxGeometry relative="1" as="geometry" />
        </mxCell>
        <mxCell id="vYbNUfEm3Xzhya9i326D-29" style="edgeStyle=orthogonalEdgeStyle;rounded=0;orthogonalLoop=1;jettySize=auto;html=1;exitX=0;exitY=0.5;exitDx=0;exitDy=0;fontSize=12;dashed=1;" edge="1" parent="1" source="vYbNUfEm3Xzhya9i326D-2">
          <mxGeometry relative="1" as="geometry">
            <mxPoint x="160" y="677" as="targetPoint" />
            <Array as="points">
              <mxPoint x="60" y="130" />
              <mxPoint x="60" y="677" />
            </Array>
          </mxGeometry>
        </mxCell>
        <mxCell id="vYbNUfEm3Xzhya9i326D-2" value="" style="rounded=0;whiteSpace=wrap;html=1;fillColor=#dae8fc;strokeColor=#6c8ebf;" vertex="1" parent="1">
          <mxGeometry x="80" y="100" width="120" height="60" as="geometry" />
        </mxCell>
        <mxCell id="vYbNUfEm3Xzhya9i326D-3" value="" style="rounded=0;whiteSpace=wrap;html=1;fillColor=#dae8fc;strokeColor=#6c8ebf;" vertex="1" parent="1">
          <mxGeometry x="240" y="100" width="120" height="60" as="geometry" />
        </mxCell>
        <mxCell id="vYbNUfEm3Xzhya9i326D-4" value="" style="rounded=0;whiteSpace=wrap;html=1;fillColor=#dae8fc;strokeColor=#6c8ebf;" vertex="1" parent="1">
          <mxGeometry x="400" y="100" width="120" height="60" as="geometry" />
        </mxCell>
        <mxCell id="vYbNUfEm3Xzhya9i326D-49" style="edgeStyle=orthogonalEdgeStyle;rounded=0;orthogonalLoop=1;jettySize=auto;html=1;exitX=1;exitY=0.5;exitDx=0;exitDy=0;dashed=1;fontFamily=Lucida Console;fontSize=17;fontColor=#FFFFFF;entryX=1;entryY=0.5;entryDx=0;entryDy=0;" edge="1" parent="1" source="vYbNUfEm3Xzhya9i326D-5" target="vYbNUfEm3Xzhya9i326D-14">
          <mxGeometry relative="1" as="geometry">
            <mxPoint x="800" y="560" as="targetPoint" />
            <Array as="points">
              <mxPoint x="810" y="130" />
              <mxPoint x="810" y="534" />
            </Array>
          </mxGeometry>
        </mxCell>
        <mxCell id="vYbNUfEm3Xzhya9i326D-5" value="" style="rounded=0;whiteSpace=wrap;html=1;fillColor=#dae8fc;strokeColor=#6c8ebf;" vertex="1" parent="1">
          <mxGeometry x="560" y="100" width="120" height="60" as="geometry" />
        </mxCell>
        <mxCell id="vYbNUfEm3Xzhya9i326D-6" value="" style="endArrow=classic;html=1;rounded=0;exitX=0.5;exitY=1;exitDx=0;exitDy=0;entryX=0.5;entryY=0;entryDx=0;entryDy=0;" edge="1" parent="1" source="vYbNUfEm3Xzhya9i326D-2" target="vYbNUfEm3Xzhya9i326D-1">
          <mxGeometry width="50" height="50" relative="1" as="geometry">
            <mxPoint x="390" y="320" as="sourcePoint" />
            <mxPoint x="440" y="270" as="targetPoint" />
          </mxGeometry>
        </mxCell>
        <mxCell id="vYbNUfEm3Xzhya9i326D-7" value="" style="endArrow=classic;html=1;rounded=0;exitX=0.5;exitY=1;exitDx=0;exitDy=0;entryX=0.5;entryY=0;entryDx=0;entryDy=0;" edge="1" parent="1" source="vYbNUfEm3Xzhya9i326D-3" target="vYbNUfEm3Xzhya9i326D-1">
          <mxGeometry width="50" height="50" relative="1" as="geometry">
            <mxPoint x="390" y="320" as="sourcePoint" />
            <mxPoint x="440" y="270" as="targetPoint" />
          </mxGeometry>
        </mxCell>
        <mxCell id="vYbNUfEm3Xzhya9i326D-8" value="" style="endArrow=classic;html=1;rounded=0;exitX=0.5;exitY=1;exitDx=0;exitDy=0;entryX=0.5;entryY=0;entryDx=0;entryDy=0;" edge="1" parent="1" source="vYbNUfEm3Xzhya9i326D-4" target="vYbNUfEm3Xzhya9i326D-1">
          <mxGeometry width="50" height="50" relative="1" as="geometry">
            <mxPoint x="310" y="170" as="sourcePoint" />
            <mxPoint x="430" y="290" as="targetPoint" />
          </mxGeometry>
        </mxCell>
        <mxCell id="vYbNUfEm3Xzhya9i326D-9" value="" style="endArrow=classic;html=1;rounded=0;exitX=0.5;exitY=1;exitDx=0;exitDy=0;entryX=0.5;entryY=0;entryDx=0;entryDy=0;" edge="1" parent="1" source="vYbNUfEm3Xzhya9i326D-5" target="vYbNUfEm3Xzhya9i326D-1">
          <mxGeometry width="50" height="50" relative="1" as="geometry">
            <mxPoint x="470" y="170" as="sourcePoint" />
            <mxPoint x="430" y="290" as="targetPoint" />
          </mxGeometry>
        </mxCell>
        <mxCell id="vYbNUfEm3Xzhya9i326D-10" value="" style="shape=image;html=1;verticalAlign=top;verticalLabelPosition=bottom;labelBackgroundColor=#ffffff;imageAspect=0;aspect=fixed;image=https://cdn2.iconfinder.com/data/icons/boxicons-logos/24/bxl-heroku-128.png" vertex="1" parent="1">
          <mxGeometry x="712" y="280" width="48" height="48" as="geometry" />
        </mxCell>
        <mxCell id="vYbNUfEm3Xzhya9i326D-23" value="" style="edgeStyle=orthogonalEdgeStyle;rounded=0;orthogonalLoop=1;jettySize=auto;html=1;fontSize=16;" edge="1" parent="1" source="vYbNUfEm3Xzhya9i326D-12" target="vYbNUfEm3Xzhya9i326D-15">
          <mxGeometry relative="1" as="geometry">
            <Array as="points">
              <mxPoint x="192" y="460" />
              <mxPoint x="420" y="460" />
            </Array>
          </mxGeometry>
        </mxCell>
        <mxCell id="vYbNUfEm3Xzhya9i326D-12" value="" style="aspect=fixed;html=1;points=[];align=center;image;fontSize=12;image=img/lib/azure2/databases/Azure_Database_PostgreSQL_Server.svg;" vertex="1" parent="1">
          <mxGeometry x="150" y="485" width="84" height="112" as="geometry" />
        </mxCell>
        <mxCell id="vYbNUfEm3Xzhya9i326D-21" value="" style="edgeStyle=orthogonalEdgeStyle;rounded=0;orthogonalLoop=1;jettySize=auto;html=1;fontSize=16;" edge="1" parent="1" source="vYbNUfEm3Xzhya9i326D-13" target="vYbNUfEm3Xzhya9i326D-11">
          <mxGeometry relative="1" as="geometry" />
        </mxCell>
        <mxCell id="vYbNUfEm3Xzhya9i326D-13" value="&lt;br&gt;&lt;br&gt;&lt;br&gt;&lt;br&gt;&lt;br&gt;&lt;br&gt;&lt;b&gt;&lt;font style=&quot;font-size: 17px&quot; face=&quot;Lucida Console&quot;&gt;AOP FLOW WORKER INSTANCE&lt;/font&gt;&lt;/b&gt;" style="sketch=0;outlineConnect=0;fontColor=#232F3E;gradientColor=none;fillColor=#2E27AD;strokeColor=none;dashed=0;verticalLabelPosition=bottom;verticalAlign=top;align=center;html=1;fontSize=12;fontStyle=0;aspect=fixed;pointerEvents=1;shape=mxgraph.aws4.cache_node;" vertex="1" parent="1">
          <mxGeometry x="381" y="490" width="78" height="78" as="geometry" />
        </mxCell>
        <mxCell id="vYbNUfEm3Xzhya9i326D-22" value="" style="edgeStyle=orthogonalEdgeStyle;rounded=0;orthogonalLoop=1;jettySize=auto;html=1;fontSize=16;" edge="1" parent="1" source="vYbNUfEm3Xzhya9i326D-14" target="vYbNUfEm3Xzhya9i326D-15">
          <mxGeometry relative="1" as="geometry">
            <Array as="points">
              <mxPoint x="620" y="460" />
              <mxPoint x="420" y="460" />
            </Array>
          </mxGeometry>
        </mxCell>
        <mxCell id="vYbNUfEm3Xzhya9i326D-14" value="&lt;span style=&quot;background-color: rgb(255 , 229 , 153)&quot;&gt;&lt;b&gt;&lt;font face=&quot;Lucida Console&quot;&gt;RabbitMQ Queues&lt;/font&gt;&lt;/b&gt;&lt;/span&gt;" style="shape=image;html=1;verticalAlign=top;verticalLabelPosition=bottom;labelBackgroundColor=#ffffff;imageAspect=0;aspect=fixed;image=https://cdn4.iconfinder.com/data/icons/Easter_lin/png/128x128/Coelho.png" vertex="1" parent="1">
          <mxGeometry x="576" y="490" width="88" height="88" as="geometry" />
        </mxCell>
        <mxCell id="vYbNUfEm3Xzhya9i326D-16" value="" style="group" vertex="1" connectable="0" parent="1">
          <mxGeometry x="135" y="310.5" width="570" height="129.5" as="geometry" />
        </mxCell>
        <mxCell id="vYbNUfEm3Xzhya9i326D-15" value="" style="rounded=0;whiteSpace=wrap;html=1;fillColor=#d5e8d4;strokeColor=#82b366;" vertex="1" parent="vYbNUfEm3Xzhya9i326D-16">
          <mxGeometry width="570" height="129.5" as="geometry" />
        </mxCell>
        <mxCell id="vYbNUfEm3Xzhya9i326D-11" value="&lt;font style=&quot;font-size: 16px&quot; color=&quot;#ffffff&quot;&gt;&lt;b style=&quot;background-color: rgb(0 , 153 , 77)&quot;&gt;Node-Express JS API Layer&lt;/b&gt;&lt;/font&gt;" style="shape=image;html=1;verticalAlign=top;verticalLabelPosition=bottom;labelBackgroundColor=#ffffff;imageAspect=0;aspect=fixed;image=https://cdn2.iconfinder.com/data/icons/boxicons-logos/24/bxl-nodejs-128.png" vertex="1" parent="vYbNUfEm3Xzhya9i326D-16">
          <mxGeometry x="235" y="10.5" width="99" height="99" as="geometry" />
        </mxCell>
        <mxCell id="vYbNUfEm3Xzhya9i326D-28" value="" style="edgeStyle=orthogonalEdgeStyle;rounded=0;orthogonalLoop=1;jettySize=auto;html=1;fontSize=16;" edge="1" parent="1" source="vYbNUfEm3Xzhya9i326D-27" target="vYbNUfEm3Xzhya9i326D-12">
          <mxGeometry relative="1" as="geometry" />
        </mxCell>
        <mxCell id="vYbNUfEm3Xzhya9i326D-27" value="&lt;font size=&quot;1&quot; face=&quot;Lucida Console&quot;&gt;&lt;b style=&quot;font-size: 12px&quot;&gt;Database Schemas&lt;/b&gt;&lt;/font&gt;" style="aspect=fixed;perimeter=ellipsePerimeter;html=1;align=center;shadow=0;dashed=0;spacingTop=3;image;image=img/lib/active_directory/database_partition_5.svg;labelBackgroundColor=#FFE599;fontSize=16;fillColor=#CDA2BE;" vertex="1" parent="1">
          <mxGeometry x="167" y="650" width="50" height="37" as="geometry" />
        </mxCell>
        <mxCell id="vYbNUfEm3Xzhya9i326D-31" style="edgeStyle=orthogonalEdgeStyle;rounded=0;orthogonalLoop=1;jettySize=auto;html=1;dashed=1;fontSize=12;" edge="1" parent="1" source="vYbNUfEm3Xzhya9i326D-30">
          <mxGeometry relative="1" as="geometry">
            <mxPoint x="60" y="450" as="targetPoint" />
          </mxGeometry>
        </mxCell>
        <mxCell id="vYbNUfEm3Xzhya9i326D-30" value="&lt;font face=&quot;Lucida Console&quot;&gt;&lt;b&gt;Each SF Organization will have a separate db schema&lt;/b&gt;&lt;/font&gt;" style="shape=note;whiteSpace=wrap;html=1;backgroundOutline=1;darkOpacity=0.05;labelBackgroundColor=#FFE599;fontSize=12;fillColor=#FFE599;align=left;" vertex="1" parent="1">
          <mxGeometry x="-90" y="380" width="130" height="120" as="geometry" />
        </mxCell>
        <mxCell id="vYbNUfEm3Xzhya9i326D-52" style="edgeStyle=orthogonalEdgeStyle;rounded=0;orthogonalLoop=1;jettySize=auto;html=1;exitX=0;exitY=0.5;exitDx=0;exitDy=0;exitPerimeter=0;dashed=1;fontFamily=Lucida Console;fontSize=17;fontColor=#FFFFFF;" edge="1" parent="1" source="vYbNUfEm3Xzhya9i326D-50">
          <mxGeometry relative="1" as="geometry">
            <mxPoint x="810" y="350" as="targetPoint" />
          </mxGeometry>
        </mxCell>
        <mxCell id="vYbNUfEm3Xzhya9i326D-50" value="&lt;font face=&quot;Lucida Console&quot;&gt;&lt;b&gt;Each SF Organization will have its own queues&lt;/b&gt;&lt;/font&gt;" style="shape=note;whiteSpace=wrap;html=1;backgroundOutline=1;darkOpacity=0.05;labelBackgroundColor=#FFE599;fontSize=12;fillColor=#FFE599;align=left;" vertex="1" parent="1">
          <mxGeometry x="880" y="290" width="150" height="120" as="geometry" />
        </mxCell>
        <mxCell id="vYbNUfEm3Xzhya9i326D-56" value="" style="group" vertex="1" connectable="0" parent="1">
          <mxGeometry x="566" y="770" width="108" height="110" as="geometry" />
        </mxCell>
        <mxCell id="vYbNUfEm3Xzhya9i326D-55" value="&lt;font style=&quot;font-size: 11px&quot;&gt;One Off Consumer - Micro App&lt;/font&gt;" style="rounded=1;whiteSpace=wrap;html=1;labelBackgroundColor=#B5739D;fontFamily=Lucida Console;fontSize=17;fontColor=#FFFFFF;fillColor=#CDA2BE;" vertex="1" parent="vYbNUfEm3Xzhya9i326D-56">
          <mxGeometry width="108" height="110" as="geometry" />
        </mxCell>
        <mxCell id="vYbNUfEm3Xzhya9i326D-43" value="" style="shape=image;html=1;verticalAlign=top;verticalLabelPosition=bottom;labelBackgroundColor=#ffffff;imageAspect=0;aspect=fixed;image=https://cdn2.iconfinder.com/data/icons/boxicons-logos/24/bxl-heroku-128.png" vertex="1" parent="vYbNUfEm3Xzhya9i326D-56">
          <mxGeometry x="78" width="30" height="30" as="geometry" />
        </mxCell>
        <mxCell id="vYbNUfEm3Xzhya9i326D-67" value="" style="group" vertex="1" connectable="0" parent="1">
          <mxGeometry x="690" y="770" width="108" height="110" as="geometry" />
        </mxCell>
        <mxCell id="vYbNUfEm3Xzhya9i326D-68" value="&lt;font style=&quot;font-size: 11px&quot;&gt;One Off Consumer - Micro App&lt;/font&gt;" style="rounded=1;whiteSpace=wrap;html=1;labelBackgroundColor=#B5739D;fontFamily=Lucida Console;fontSize=17;fontColor=#FFFFFF;fillColor=#CDA2BE;" vertex="1" parent="vYbNUfEm3Xzhya9i326D-67">
          <mxGeometry width="108" height="110" as="geometry" />
        </mxCell>
        <mxCell id="vYbNUfEm3Xzhya9i326D-69" value="" style="shape=image;html=1;verticalAlign=top;verticalLabelPosition=bottom;labelBackgroundColor=#ffffff;imageAspect=0;aspect=fixed;image=https://cdn2.iconfinder.com/data/icons/boxicons-logos/24/bxl-heroku-128.png" vertex="1" parent="vYbNUfEm3Xzhya9i326D-67">
          <mxGeometry x="78" width="30" height="30" as="geometry" />
        </mxCell>
        <mxCell id="vYbNUfEm3Xzhya9i326D-70" value="" style="group" vertex="1" connectable="0" parent="1">
          <mxGeometry x="420" y="770" width="108" height="110" as="geometry" />
        </mxCell>
        <mxCell id="vYbNUfEm3Xzhya9i326D-71" value="&lt;font style=&quot;font-size: 11px&quot;&gt;One Off Consumer - Micro App&lt;/font&gt;" style="rounded=1;whiteSpace=wrap;html=1;labelBackgroundColor=#B5739D;fontFamily=Lucida Console;fontSize=17;fontColor=#FFFFFF;fillColor=#CDA2BE;" vertex="1" parent="vYbNUfEm3Xzhya9i326D-70">
          <mxGeometry width="108" height="110" as="geometry" />
        </mxCell>
        <mxCell id="vYbNUfEm3Xzhya9i326D-72" value="" style="shape=image;html=1;verticalAlign=top;verticalLabelPosition=bottom;labelBackgroundColor=#ffffff;imageAspect=0;aspect=fixed;image=https://cdn2.iconfinder.com/data/icons/boxicons-logos/24/bxl-heroku-128.png" vertex="1" parent="vYbNUfEm3Xzhya9i326D-70">
          <mxGeometry x="78" width="30" height="30" as="geometry" />
        </mxCell>
        <mxCell id="vYbNUfEm3Xzhya9i326D-73" style="edgeStyle=orthogonalEdgeStyle;rounded=0;orthogonalLoop=1;jettySize=auto;html=1;entryX=0;entryY=0.5;entryDx=0;entryDy=0;dashed=1;fontFamily=Lucida Console;fontSize=11;fontColor=#FFFFFF;" edge="1" parent="1" source="vYbNUfEm3Xzhya9i326D-71" target="vYbNUfEm3Xzhya9i326D-14">
          <mxGeometry relative="1" as="geometry" />
        </mxCell>
        <mxCell id="vYbNUfEm3Xzhya9i326D-74" style="edgeStyle=orthogonalEdgeStyle;rounded=0;orthogonalLoop=1;jettySize=auto;html=1;entryX=1;entryY=0.5;entryDx=0;entryDy=0;dashed=1;fontFamily=Lucida Console;fontSize=11;fontColor=#FFFFFF;" edge="1" parent="1" source="vYbNUfEm3Xzhya9i326D-68" target="vYbNUfEm3Xzhya9i326D-14">
          <mxGeometry relative="1" as="geometry">
            <Array as="points">
              <mxPoint x="684" y="825" />
              <mxPoint x="684" y="534" />
            </Array>
          </mxGeometry>
        </mxCell>
        <mxCell id="vYbNUfEm3Xzhya9i326D-75" style="edgeStyle=orthogonalEdgeStyle;rounded=0;orthogonalLoop=1;jettySize=auto;html=1;exitX=0.5;exitY=1;exitDx=0;exitDy=0;dashed=1;fontFamily=Lucida Console;fontSize=11;fontColor=#FFFFFF;entryX=0.5;entryY=1;entryDx=0;entryDy=0;" edge="1" parent="1" source="vYbNUfEm3Xzhya9i326D-71" target="vYbNUfEm3Xzhya9i326D-27">
          <mxGeometry relative="1" as="geometry">
            <mxPoint x="620" y="960" as="targetPoint" />
          </mxGeometry>
        </mxCell>
        <mxCell id="vYbNUfEm3Xzhya9i326D-76" style="edgeStyle=orthogonalEdgeStyle;rounded=0;orthogonalLoop=1;jettySize=auto;html=1;exitX=0.5;exitY=1;exitDx=0;exitDy=0;dashed=1;fontFamily=Lucida Console;fontSize=11;fontColor=#FFFFFF;entryX=0.5;entryY=1;entryDx=0;entryDy=0;" edge="1" parent="1" source="vYbNUfEm3Xzhya9i326D-68" target="vYbNUfEm3Xzhya9i326D-27">
          <mxGeometry relative="1" as="geometry">
            <mxPoint x="620" y="930" as="targetPoint" />
          </mxGeometry>
        </mxCell>
        <mxCell id="vYbNUfEm3Xzhya9i326D-91" style="edgeStyle=orthogonalEdgeStyle;rounded=0;orthogonalLoop=1;jettySize=auto;html=1;exitX=0.5;exitY=0;exitDx=0;exitDy=0;exitPerimeter=0;entryX=0.5;entryY=0;entryDx=0;entryDy=0;dashed=1;fontFamily=Lucida Console;fontSize=13;fontColor=#000000;endArrow=none;endFill=0;" edge="1" parent="1" source="vYbNUfEm3Xzhya9i326D-78" target="vYbNUfEm3Xzhya9i326D-2">
          <mxGeometry relative="1" as="geometry" />
        </mxCell>
        <mxCell id="vYbNUfEm3Xzhya9i326D-92" style="edgeStyle=orthogonalEdgeStyle;rounded=0;orthogonalLoop=1;jettySize=auto;html=1;entryX=0.5;entryY=0;entryDx=0;entryDy=0;dashed=1;fontFamily=Lucida Console;fontSize=13;fontColor=#000000;endArrow=none;endFill=0;" edge="1" parent="1" source="vYbNUfEm3Xzhya9i326D-78" target="vYbNUfEm3Xzhya9i326D-3">
          <mxGeometry relative="1" as="geometry">
            <Array as="points">
              <mxPoint x="-45" y="80" />
              <mxPoint x="300" y="80" />
            </Array>
          </mxGeometry>
        </mxCell>
        <mxCell id="vYbNUfEm3Xzhya9i326D-93" style="edgeStyle=orthogonalEdgeStyle;rounded=0;orthogonalLoop=1;jettySize=auto;html=1;entryX=0.5;entryY=0;entryDx=0;entryDy=0;dashed=1;fontFamily=Lucida Console;fontSize=13;fontColor=#000000;endArrow=none;endFill=0;" edge="1" parent="1" source="vYbNUfEm3Xzhya9i326D-78" target="vYbNUfEm3Xzhya9i326D-4">
          <mxGeometry relative="1" as="geometry">
            <Array as="points">
              <mxPoint x="-45" y="80" />
              <mxPoint x="460" y="80" />
            </Array>
          </mxGeometry>
        </mxCell>
        <mxCell id="vYbNUfEm3Xzhya9i326D-94" style="edgeStyle=orthogonalEdgeStyle;rounded=0;orthogonalLoop=1;jettySize=auto;html=1;entryX=0.5;entryY=0;entryDx=0;entryDy=0;dashed=1;fontFamily=Lucida Console;fontSize=13;fontColor=#000000;endArrow=none;endFill=0;" edge="1" parent="1" source="vYbNUfEm3Xzhya9i326D-78" target="vYbNUfEm3Xzhya9i326D-5">
          <mxGeometry relative="1" as="geometry">
            <Array as="points">
              <mxPoint x="-45" y="80" />
              <mxPoint x="620" y="80" />
            </Array>
          </mxGeometry>
        </mxCell>
        <mxCell id="vYbNUfEm3Xzhya9i326D-78" value="" style="sketch=0;html=1;dashed=0;whitespace=wrap;fillColor=#2875E2;strokeColor=#ffffff;points=[[0.005,0.63,0],[0.1,0.2,0],[0.9,0.2,0],[0.5,0,0],[0.995,0.63,0],[0.72,0.99,0],[0.5,1,0],[0.28,0.99,0]];shape=mxgraph.kubernetes.icon;prIcon=api;labelBackgroundColor=#B5739D;fontFamily=Lucida Console;fontSize=11;fontColor=#FFFFFF;" vertex="1" parent="1">
          <mxGeometry x="-80" y="170" width="70" height="100" as="geometry" />
        </mxCell>
        <mxCell id="vYbNUfEm3Xzhya9i326D-86" style="edgeStyle=orthogonalEdgeStyle;rounded=0;orthogonalLoop=1;jettySize=auto;html=1;entryX=0.005;entryY=0.63;entryDx=0;entryDy=0;entryPerimeter=0;dashed=1;fontFamily=Lucida Console;fontSize=11;fontColor=#FFFFFF;" edge="1" parent="1" source="vYbNUfEm3Xzhya9i326D-71" target="vYbNUfEm3Xzhya9i326D-78">
          <mxGeometry relative="1" as="geometry" />
        </mxCell>
        <mxCell id="vYbNUfEm3Xzhya9i326D-90" value="&lt;span style=&quot;font-family: &amp;#34;lucida console&amp;#34; ; font-style: normal ; letter-spacing: normal ; text-align: center ; text-indent: 0px ; text-transform: none ; word-spacing: 0px ; display: inline ; float: none ; background-color: rgb(255 , 229 , 153)&quot;&gt;&lt;font style=&quot;font-size: 13px&quot; color=&quot;#000000&quot;&gt;&lt;b&gt;Salesforce org exposed API for callbacks&lt;/b&gt;&lt;/font&gt;&lt;/span&gt;" style="text;whiteSpace=wrap;html=1;fontSize=11;fontFamily=Lucida Console;fontColor=#FFFFFF;" vertex="1" parent="1">
          <mxGeometry x="-170" y="250" width="340" height="30" as="geometry" />
        </mxCell>
        <mxCell id="vYbNUfEm3Xzhya9i326D-97" style="edgeStyle=orthogonalEdgeStyle;rounded=0;orthogonalLoop=1;jettySize=auto;html=1;exitX=1;exitY=0.5;exitDx=0;exitDy=0;entryX=1;entryY=0.5;entryDx=0;entryDy=0;fontFamily=Lucida Console;fontSize=13;fontColor=#000000;startArrow=classicThin;startFill=1;endArrow=none;endFill=0;" edge="1" parent="1" source="vYbNUfEm3Xzhya9i326D-68" target="vYbNUfEm3Xzhya9i326D-15">
          <mxGeometry relative="1" as="geometry">
            <Array as="points">
              <mxPoint x="840" y="825" />
              <mxPoint x="840" y="375" />
            </Array>
          </mxGeometry>
        </mxCell>
        <mxCell id="vYbNUfEm3Xzhya9i326D-99" style="edgeStyle=orthogonalEdgeStyle;rounded=0;orthogonalLoop=1;jettySize=auto;html=1;fontFamily=Lucida Console;fontSize=13;fontColor=#000000;startArrow=classicThin;startFill=1;endArrow=none;endFill=0;dashed=1;" edge="1" parent="1" target="vYbNUfEm3Xzhya9i326D-98">
          <mxGeometry relative="1" as="geometry">
            <mxPoint x="840" y="628" as="sourcePoint" />
          </mxGeometry>
        </mxCell>
        <mxCell id="vYbNUfEm3Xzhya9i326D-98" value="&lt;font face=&quot;Lucida Console&quot; size=&quot;1&quot;&gt;&lt;b style=&quot;font-size: 11px&quot;&gt;Consumers will be spawn on demand when a message from SFDC should be routed to a queue&lt;/b&gt;&lt;/font&gt;" style="shape=note;whiteSpace=wrap;html=1;backgroundOutline=1;darkOpacity=0.05;labelBackgroundColor=#FFE599;fontSize=12;fillColor=#FFE599;align=left;" vertex="1" parent="1">
          <mxGeometry x="940" y="560" width="140" height="138" as="geometry" />
        </mxCell>
      </root>
    </mxGraphModel>
  </diagram>
</mxfile>
